<?xml version="1.0" encoding="UTF-8" standalone="no"?>
<svg
   xmlns:dc="http://purl.org/dc/elements/1.1/"
   xmlns:cc="http://creativecommons.org/ns#"
   xmlns:rdf="http://www.w3.org/1999/02/22-rdf-syntax-ns#"
   xmlns:svg="http://www.w3.org/2000/svg"
   xmlns="http://www.w3.org/2000/svg"
   xmlns:sodipodi="http://sodipodi.sourceforge.net/DTD/sodipodi-0.dtd"
   xmlns:inkscape="http://www.inkscape.org/namespaces/inkscape"
   width="250.52951"
   height="84.458"
   viewBox="0 0 250.52951 84.458001"
   version="1.1"
   id="svg74"
   sodipodi:docname="logo-vertical.svg"
   inkscape:version="1.0.1 (3bc2e813f5, 2020-09-07)">
  <metadata
     id="metadata80">
    <rdf:RDF>
      <cc:Work
         rdf:about="">
        <dc:format>image/svg+xml</dc:format>
        <dc:type
           rdf:resource="http://purl.org/dc/dcmitype/StillImage" />
        <dc:title></dc:title>
      </cc:Work>
    </rdf:RDF>
  </metadata>
  <defs
     id="defs78" />
  <sodipodi:namedview
     pagecolor="#ffffff"
     bordercolor="#666666"
     borderopacity="1"
     objecttolerance="10"
     gridtolerance="10"
     guidetolerance="10"
     inkscape:pageopacity="0"
     inkscape:pageshadow="2"
     inkscape:window-width="1280"
     inkscape:window-height="698"
     id="namedview76"
     showgrid="false"
     inkscape:zoom="2"
     inkscape:cx="41.71409"
     inkscape:cy="69.3825"
     inkscape:window-x="-6"
     inkscape:window-y="-6"
     inkscape:window-maximized="1"
     inkscape:current-layer="logo" />
  <g
     id="logo"
     transform="translate(-301.28591,-106.222)">
    <g
       id="g111">
      <path
         id="Trazado_1"
         data-name="Trazado 1"
         d="m 2869.124,1862.28 v -5.621 h -21 v -8.475 h 50.509 v 8.475 h -20.6 v 5.608 l 31.428,32.459 a 43.883,43.883 0 0 0 5.7,-21.706 c 0,-23.758 -18.648,-43.018 -41.652,-43.018 -23.004,0 -41.652,19.26 -41.652,43.018 a 43.88,43.88 0 0 0 5.755,21.813 z"
         transform="translate(-2530.571,-1723.78)"
         fill="#e13648" />
      <path
         id="Trazado_2"
         data-name="Trazado 2"
         d="m 3036.436,2044.7 10.679,-9.818 -10.679,-10.679 z"
         transform="translate(-2689.02,-1873.655)"
         fill="#e13648" />
      <path
         id="Trazado_3"
         data-name="Trazado 3"
         d="m 2908.176,2114.424 -17.31,-15.914 -9.686,9.686 a 42.9,42.9 0 0 0 27,13.515 z"
         transform="translate(-2569.374,-1931.031)"
         fill="#e13648" />
      <path
         id="Trazado_4"
         data-name="Trazado 4"
         d="m 3053.625,2097.936 -17.189,15.8 v 7.513 a 42.9,42.9 0 0 0 26.923,-13.582 z"
         transform="translate(-2689.221,-1930.589)"
         fill="#e13648" />
      <path
         id="Trazado_5"
         data-name="Trazado 5"
         d="m 2961.454,2044.989 v -20.728 l -10.8,10.8 z"
         transform="translate(-2622.853,-1873.701)"
         fill="#e13648" />
    </g>
    <g
       id="g104"
       transform="translate(133.81242,-66.316642)">
      <path
         id="Trazado_7"
         data-name="Trazado 7"
         d="m 4027.657,1346.226 h -1.557 v 6.9 h -1 v -6.9 h -1.548 v -0.831 h 1.548 v -2.076 h 1 v 2.076 h 1.557 z"
         transform="translate(-3726.517,-1108.351)"
         fill="#e13648" />
      <path
         id="Trazado_8"
         data-name="Trazado 8"
         d="m 4052.344,1351.94 v 0.831 a 3.644,3.644 0 0 0 -0.58,-0.052 2.116,2.116 0 0 0 -1.661,0.666 2.649,2.649 0 0 0 -0.6,1.834 v 4.447 h -1.021 v -7.726 h 0.848 l 0.156,1.254 a 1.732,1.732 0 0 1 0.766,-0.99 2.474,2.474 0 0 1 1.328,-0.35 2.947,2.947 0 0 1 0.764,0.086 z"
         transform="translate(-3745.746,-1114.896)"
         fill="#e13648" />
      <path
         id="Trazado_9"
         data-name="Trazado 9"
         d="m 4076.861,1351.514 v 7.726 h -0.935 v -1.626 a 3.031,3.031 0 0 1 -1.207,1.328 3.605,3.605 0 0 1 -1.933,0.515 3.566,3.566 0 0 1 -1.895,-0.506 3.477,3.477 0 0 1 -1.3,-1.436 5.024,5.024 0 0 1 0.01,-4.27 3.508,3.508 0 0 1 1.319,-1.44 3.642,3.642 0 0 1 1.92,-0.506 3.773,3.773 0 0 1 1.916,0.48 2.737,2.737 0 0 1 1.189,1.293 l 0.087,-1.557 z m -1.843,6.156 a 3.411,3.411 0 0 0 0.779,-2.349 3.258,3.258 0 0 0 -0.762,-2.275 2.611,2.611 0 0 0 -2.033,-0.839 2.638,2.638 0 0 0 -2.077,0.878 3.785,3.785 0 0 0 0,4.6 2.838,2.838 0 0 0 4.092,-0.013 z"
         transform="translate(-3761.676,-1114.469)"
         fill="#e13648" />
      <path
         id="Trazado_10"
         data-name="Trazado 10"
         d="m 4110.813,1379.5 a 0.929,0.929 0 0 1 -0.281,-0.675 1,1 0 1 1 2,0 0.927,0.927 0 0 1 -0.281,0.675 0.959,0.959 0 0 1 -0.713,0.286 0.97,0.97 0 0 1 -0.725,-0.286 z"
         transform="translate(-3793.582,-1134.817)"
         fill="#e13648" />
      <path
         id="Trazado_11"
         data-name="Trazado 11"
         d="m 4131.413,1342.268 a 4.373,4.373 0 0 1 0.407,1.925 4.275,4.275 0 0 1 -0.489,2.037 3.677,3.677 0 0 1 -1.371,1.454 4.077,4.077 0 0 1 -4.027,0 3.68,3.68 0 0 1 -1.367,-1.454 4.239,4.239 0 0 1 -0.489,-2.02 4.345,4.345 0 0 1 0.48,-2.037 3.635,3.635 0 0 1 1.354,-1.453 3.751,3.751 0 0 1 1.99,-0.532 1.244,1.244 0 0 1 0.55,0.069 c 0.13,0.058 0.209,0.092 0.238,0.1 l -1.367,-1.488 -2.18,1.012 -0.3,-0.658 1.99,-0.917 -1.531,-1.67 h 1.211 l 1.185,1.263 2.033,-0.943 0.286,0.657 -1.808,0.83 1.956,2.077 a 7.1,7.1 0 0 1 1.249,1.748 z m -1.419,4.161 a 3.309,3.309 0 0 0 0.779,-2.254 3.663,3.663 0 0 0 -0.346,-1.6 2.66,2.66 0 0 0 -2.483,-1.553 2.571,2.571 0 0 0 -2.046,0.9 3.692,3.692 0 0 0 0,4.52 2.8,2.8 0 0 0 4.1,0 z"
         transform="translate(-3804.064,-1103.229)"
         fill="#e13648" />
      <path
         id="Trazado_12"
         data-name="Trazado 12"
         d="m 4171.99,1352.225 v 7.726 h -0.822 l -0.138,-1.237 a 2.455,2.455 0 0 1 -1.03,1.082 3.134,3.134 0 0 1 -1.54,0.372 2.694,2.694 0 0 1 -2.076,-0.8 3.016,3.016 0 0 1 -0.744,-2.141 v -5 h 1.03 v 4.75 a 2.407,2.407 0 0 0 0.531,1.761 2.114,2.114 0 0 0 1.545,0.523 2.022,2.022 0 0 0 1.622,-0.718 2.815,2.815 0 0 0 0.609,-1.886 v -4.429 z"
         transform="translate(-3836.109,-1115.18)"
         fill="#e13648" />
      <path
         id="Trazado_13"
         data-name="Trazado 13"
         d="m 4207.757,1340.51 2.673,4.87 h -1.116 l -2.267,-4.144 -1.756,1.825 v 2.318 h -1.021 v -12.155 h 1.021 v 8.573 l 4.006,-4.144 h 1.229 z"
         transform="translate(-3865.901,-1100.61)"
         fill="#e13648" />
      <path
         id="Trazado_14"
         data-name="Trazado 14"
         d="m 4236.057,1379.5 a 0.927,0.927 0 0 1 -0.281,-0.675 1,1 0 1 1 2,0 0.929,0.929 0 0 1 -0.281,0.675 1.046,1.046 0 0 1 -1.436,0 z"
         transform="translate(-3890.157,-1134.817)"
         fill="#e13648" />
      <path
         id="Trazado_15"
         data-name="Trazado 15"
         d="m 4252.047,1339.683 a 1.5,1.5 0 0 1 0.337,1.047 2.37,2.37 0 0 1 -0.61,1.64 2.543,2.543 0 0 1 -1.674,0.8 v -0.476 a 1.7,1.7 0 0 0 1.038,-0.549 1.238,1.238 0 0 0 0.311,-0.956 0.751,0.751 0 0 1 -0.372,0.087 0.9,0.9 0 0 1 -0.909,-0.934 0.984,0.984 0 0 1 0.3,-0.735 1.1,1.1 0 0 1 1.575,0.078 z"
         transform="translate(-3901.206,-1105.277)"
         fill="#e13648" />
      <path
         id="Trazado_16"
         data-name="Trazado 16"
         d="m 4269.054,1346.226 h -1.554 v 6.9 h -1 v -6.9 h -1.548 v -0.831 h 1.548 v -2.076 h 1 v 2.076 h 1.558 z"
         transform="translate(-3912.67,-1108.351)"
         fill="#e13648" />
      <path
         id="Trazado_17"
         data-name="Trazado 17"
         d="m 4287.808,1353.331 a 3.918,3.918 0 0 1 1.454,-1.484 4.079,4.079 0 0 1 2.115,-0.549 4.15,4.15 0 0 1 2.128,0.549 3.867,3.867 0 0 1 1.462,1.484 4.185,4.185 0 0 1 0.519,2.068 4.05,4.05 0 0 1 -0.532,2.046 3.934,3.934 0 0 1 -1.462,1.471 4.392,4.392 0 0 1 -4.222,0 3.846,3.846 0 0 1 -1.462,-1.471 4.1,4.1 0 0 1 -0.523,-2.046 4.157,4.157 0 0 1 0.523,-2.068 z m 0.913,3.668 a 2.916,2.916 0 0 0 1.082,1.133 3,3 0 0 0 1.574,0.415 3.045,3.045 0 0 0 1.583,-0.415 2.93,2.93 0 0 0 1.094,-1.133 3.276,3.276 0 0 0 0.394,-1.6 3.387,3.387 0 0 0 -0.394,-1.631 2.921,2.921 0 0 0 -1.09,-1.146 3.04,3.04 0 0 0 -1.587,-0.415 3,3 0 0 0 -1.574,0.415 2.9,2.9 0 0 0 -1.082,1.142 3.411,3.411 0 0 0 -0.389,1.635 3.305,3.305 0 0 0 0.388,1.601 z"
         transform="translate(-3929.946,-1114.469)"
         fill="#e13648" />
      <path
         id="Trazado_18"
         data-name="Trazado 18"
         d="m 4327.68,1379.5 a 0.927,0.927 0 0 1 -0.281,-0.675 1,1 0 1 1 2,0 0.929,0.929 0 0 1 -0.281,0.675 1.046,1.046 0 0 1 -1.436,0 z"
         transform="translate(-3960.807,-1134.817)"
         fill="#e13648" />
      <path
         id="Trazado_19"
         data-name="Trazado 19"
         d="m 4348.4,1351.94 v 0.831 a 3.638,3.638 0 0 0 -0.58,-0.052 2.115,2.115 0 0 0 -1.661,0.666 2.65,2.65 0 0 0 -0.6,1.834 v 4.447 h -1.021 v -7.726 h 0.848 l 0.156,1.254 a 1.729,1.729 0 0 1 0.766,-0.99 2.471,2.471 0 0 1 1.327,-0.35 2.943,2.943 0 0 1 0.765,0.086 z"
         transform="translate(-3974.051,-1114.896)"
         fill="#e13648" />
      <path
         id="Trazado_20"
         data-name="Trazado 20"
         d="m 4371.354,1358.79 a 4.028,4.028 0 0 1 -2.31,0.666 3.936,3.936 0 0 1 -2.029,-0.515 3.5,3.5 0 0 1 -1.358,-1.445 4.605,4.605 0 0 1 -0.48,-2.141 4.46,4.46 0 0 1 0.489,-2.124 3.529,3.529 0 0 1 1.354,-1.427 4.077,4.077 0 0 1 3.854,-0.043 3.222,3.222 0 0 1 1.276,1.285 3.834,3.834 0 0 1 0.45,1.869 5.593,5.593 0 0 1 -0.052,0.8 h -6.376 a 3.042,3.042 0 0 0 0.831,2.1 2.744,2.744 0 0 0 2.042,0.787 3.016,3.016 0 0 0 1.618,-0.432 2.172,2.172 0 0 0 0.952,-1.159 h 1 a 2.949,2.949 0 0 1 -1.261,1.779 z m 0.233,-3.876 a 2.834,2.834 0 0 0 -0.731,-1.99 2.464,2.464 0 0 0 -1.873,-0.753 2.68,2.68 0 0 0 -2.812,2.742 z"
         transform="translate(-3990.012,-1114.469)"
         fill="#e13648" />
      <path
         id="Trazado_21"
         data-name="Trazado 21"
         d="m 4404.277,1358.825 a 2.138,2.138 0 0 1 -0.878,-1.661 h 0.978 a 1.389,1.389 0 0 0 0.6,1.081 2.423,2.423 0 0 0 1.432,0.389 2.4,2.4 0 0 0 1.419,-0.372 1.2,1.2 0 0 0 0.519,-1.038 q 0,-1.082 -1.419,-1.35 l -1.436,-0.32 a 2.531,2.531 0 0 1 -1.427,-0.744 1.93,1.93 0 0 1 -0.45,-1.3 1.957,1.957 0 0 1 0.761,-1.6 3.571,3.571 0 0 1 4.036,0.03 2.171,2.171 0 0 1 0.817,1.687 h -0.978 a 1.366,1.366 0 0 0 -0.532,-1.107 2.138,2.138 0 0 0 -1.345,-0.4 2.09,2.09 0 0 0 -1.276,0.346 1.149,1.149 0 0 0 -0.463,0.978 0.967,0.967 0 0 0 0.372,0.861 2.719,2.719 0 0 0 0.926,0.385 l 1.592,0.354 a 2.467,2.467 0 0 1 1.4,0.77 2.168,2.168 0 0 1 -0.346,3.019 3.458,3.458 0 0 1 -2.171,0.623 3.415,3.415 0 0 1 -2.131,-0.631 z"
         transform="translate(-4019.469,-1114.469)"
         fill="#e13648" />
      <path
         id="Trazado_22"
         data-name="Trazado 22"
         d="m 3917.294,1213.822 h -7.186 v 18.827 h -6.164 v -18.827 h -7.26 v -5.552 h 20.609 z"
         transform="translate(-3628.685,-1004.786)"
         fill="#08296d" />
      <path
         id="Trazado_23"
         data-name="Trazado 23"
         d="m 3998.708,1208.27 h 9.9 q 10.008,0 9.989,8.1 a 8.388,8.388 0 0 1 -1.021,4.224 6.907,6.907 0 0 1 -2.971,2.776 l 4.307,9.283 h -6.925 l -3.527,-8.207 h -3.584 v 8.207 h -6.164 z m 9.859,10.917 a 3.757,3.757 0 0 0 2.674,-0.817 2.758,2.758 0 0 0 0.037,-3.955 3.677,3.677 0 0 0 -2.674,-0.817 h -3.732 v 5.589 z"
         transform="translate(-3707.414,-1004.786)"
         fill="#08296d" />
      <path
         id="Trazado_24"
         data-name="Trazado 24"
         d="m 4101.129,1200.156 v -24.379 h 6.164 v 24.379 z m 1.411,-27.5 6.424,-6.758 2.748,2.8 -7.5,5.756 z"
         transform="translate(-3786.384,-972.293)"
         fill="#08296d" />
      <path
         id="Trazado_25"
         data-name="Trazado 25"
         d="m 4164.69,1210.479 a 8.915,8.915 0 0 1 -0.037,12.041 9.042,9.042 0 0 1 -6.517,2.256 h -4.252 v 7.872 h -6.164 v -24.378 h 10.546 a 8.941,8.941 0 0 1 6.424,2.209 z m -5.032,8.114 a 3.144,3.144 0 0 0 0.835,-2.173 2.791,2.791 0 0 0 -0.835,-1.922 3.468,3.468 0 0 0 -2.655,-0.9 h -3.119 v 5.923 H 4157 a 3.407,3.407 0 0 0 2.659,-0.927 z"
         transform="translate(-3822.395,-1004.786)"
         fill="#08296d" />
      <path
         id="Trazado_26"
         data-name="Trazado 26"
         d="m 4263.533,1225.368 a 11.656,11.656 0 0 1 -4.716,4.475 15.677,15.677 0 0 1 -13.749,0.019 11.635,11.635 0 0 1 -4.7,-4.456 12.794,12.794 0 0 1 -1.7,-6.629 13.015,13.015 0 0 1 1.68,-6.638 11.557,11.557 0 0 1 4.7,-4.5 15.637,15.637 0 0 1 13.768,0 11.679,11.679 0 0 1 4.716,4.465 13.863,13.863 0 0 1 0,13.266 z m -6.693,-11.707 a 6.428,6.428 0 0 0 -4.855,-1.922 6.533,6.533 0 0 0 -4.92,1.94 7.025,7.025 0 0 0 -1.875,5.1 6.9,6.9 0 0 0 1.857,5.05 7.228,7.228 0 0 0 9.775,-0.019 6.946,6.946 0 0 0 1.866,-5.069 7.021,7.021 0 0 0 -1.848,-5.079 z"
         transform="translate(-3892.671,-1003.076)"
         fill="#08296d" />
      <path
         id="Trazado_27"
         data-name="Trazado 27"
         d="m 4385.069,1209.848 a 11.262,11.262 0 0 1 4.392,4.391 12.7,12.7 0 0 1 1.578,6.322 12.365,12.365 0 0 1 -1.559,6.229 11.176,11.176 0 0 1 -4.354,4.3 12.863,12.863 0 0 1 -6.377,1.56 h -10.416 v -24.38 h 10.416 a 12.7,12.7 0 0 1 6.32,1.578 z m -2.247,15.439 a 6.584,6.584 0 0 0 1.718,-4.725 6.854,6.854 0 0 0 -1.736,-4.892 6.081,6.081 0 0 0 -4.651,-1.848 h -3.653 v 13.278 h 3.658 a 6.129,6.129 0 0 0 4.664,-1.813 z"
         transform="translate(-3993.109,-1004.786)"
         fill="#08296d" />
      <path
         id="Trazado_28"
         data-name="Trazado 28"
         d="m 4487.667,1213.822 v 3.806 h 9.042 v 5.366 h -9.042 v 4.1 h 10.23 v 5.552 H 4481.5 v -24.376 h 16.4 v 5.552 z"
         transform="translate(-4079.897,-1004.786)"
         fill="#08296d" />
    </g>
  </g>
</svg>
