<svg xmlns="http://www.w3.org/2000/svg" width="150" height="138.765" viewBox="0 0 150 138.765">
  <g id="logo" transform="translate(-268 -106.222)">
    <path id="Trazado_1" data-name="Trazado 1" d="M2869.124,1862.28v-5.621h-21v-8.475h50.509v8.475h-20.6v5.608l31.428,32.459a43.883,43.883,0,0,0,5.7-21.706c0-23.758-18.648-43.018-41.652-43.018s-41.652,19.26-41.652,43.018a43.88,43.88,0,0,0,5.755,21.813Z" transform="translate(-2530.571 -1723.78)" fill="#e13648"/>
    <path id="Trazado_2" data-name="Trazado 2" d="M3036.436,2044.7l10.679-9.818-10.679-10.679Z" transform="translate(-2689.02 -1873.655)" fill="#e13648"/>
    <path id="Trazado_3" data-name="Trazado 3" d="M2908.176,2114.424l-17.31-15.914-9.686,9.686a42.9,42.9,0,0,0,27,13.515Z" transform="translate(-2569.374 -1931.031)" fill="#e13648"/>
    <path id="Trazado_4" data-name="Trazado 4" d="M3053.625,2097.936l-17.189,15.8v7.513a42.9,42.9,0,0,0,26.923-13.582Z" transform="translate(-2689.221 -1930.589)" fill="#e13648"/>
    <path id="Trazado_5" data-name="Trazado 5" d="M2961.454,2044.989v-20.728l-10.8,10.8Z" transform="translate(-2622.853 -1873.701)" fill="#e13648"/>
    <path id="Trazado_7" data-name="Trazado 7" d="M4027.657,1346.226H4026.1v6.9h-1v-6.9h-1.548v-.831h1.548v-2.076h1v2.076h1.557Z" transform="translate(-3726.517 -1108.351)" fill="#e13648"/>
    <path id="Trazado_8" data-name="Trazado 8" d="M4052.344,1351.94v.831a3.644,3.644,0,0,0-.58-.052,2.116,2.116,0,0,0-1.661.666,2.649,2.649,0,0,0-.6,1.834v4.447h-1.021v-7.726h.848l.156,1.254a1.732,1.732,0,0,1,.766-.99,2.474,2.474,0,0,1,1.328-.35A2.947,2.947,0,0,1,4052.344,1351.94Z" transform="translate(-3745.746 -1114.896)" fill="#e13648"/>
    <path id="Trazado_9" data-name="Trazado 9" d="M4076.861,1351.514v7.726h-.935v-1.626a3.031,3.031,0,0,1-1.207,1.328,3.605,3.605,0,0,1-1.933.515,3.566,3.566,0,0,1-1.895-.506,3.477,3.477,0,0,1-1.3-1.436,5.024,5.024,0,0,1,.009-4.27,3.508,3.508,0,0,1,1.319-1.44,3.642,3.642,0,0,1,1.92-.506,3.773,3.773,0,0,1,1.916.48,2.737,2.737,0,0,1,1.189,1.293l.087-1.557Zm-1.843,6.156a3.411,3.411,0,0,0,.779-2.349,3.258,3.258,0,0,0-.762-2.275,2.611,2.611,0,0,0-2.033-.839,2.638,2.638,0,0,0-2.077.878,3.785,3.785,0,0,0,0,4.6,2.838,2.838,0,0,0,4.092-.013Z" transform="translate(-3761.676 -1114.469)" fill="#e13648"/>
    <path id="Trazado_10" data-name="Trazado 10" d="M4110.813,1379.5a.929.929,0,0,1-.281-.675,1,1,0,1,1,2,0,.927.927,0,0,1-.281.675.959.959,0,0,1-.713.286A.97.97,0,0,1,4110.813,1379.5Z" transform="translate(-3793.582 -1134.817)" fill="#e13648"/>
    <path id="Trazado_11" data-name="Trazado 11" d="M4131.413,1342.268a4.373,4.373,0,0,1,.407,1.925,4.275,4.275,0,0,1-.489,2.037,3.677,3.677,0,0,1-1.371,1.454,4.077,4.077,0,0,1-4.027,0,3.68,3.68,0,0,1-1.367-1.454,4.239,4.239,0,0,1-.489-2.02,4.345,4.345,0,0,1,.48-2.037,3.635,3.635,0,0,1,1.354-1.453,3.751,3.751,0,0,1,1.99-.532,1.244,1.244,0,0,1,.55.069c.13.058.209.092.238.1l-1.367-1.488-2.18,1.012-.3-.658,1.99-.917-1.531-1.67h1.211l1.185,1.263,2.033-.943.286.657-1.808.83,1.956,2.077A7.1,7.1,0,0,1,4131.413,1342.268Zm-1.419,4.161a3.309,3.309,0,0,0,.779-2.254,3.663,3.663,0,0,0-.346-1.6,2.66,2.66,0,0,0-2.483-1.553,2.571,2.571,0,0,0-2.046.9,3.692,3.692,0,0,0,0,4.52,2.8,2.8,0,0,0,4.1,0Z" transform="translate(-3804.064 -1103.229)" fill="#e13648"/>
    <path id="Trazado_12" data-name="Trazado 12" d="M4171.99,1352.225v7.726h-.822l-.138-1.237a2.455,2.455,0,0,1-1.03,1.082,3.134,3.134,0,0,1-1.54.372,2.694,2.694,0,0,1-2.076-.8,3.016,3.016,0,0,1-.744-2.141v-5h1.03v4.75a2.407,2.407,0,0,0,.531,1.761,2.114,2.114,0,0,0,1.545.523,2.022,2.022,0,0,0,1.622-.718,2.815,2.815,0,0,0,.609-1.886v-4.429Z" transform="translate(-3836.109 -1115.18)" fill="#e13648"/>
    <path id="Trazado_13" data-name="Trazado 13" d="M4207.757,1340.51l2.673,4.87h-1.116l-2.267-4.144-1.756,1.825v2.318h-1.021v-12.155h1.021v8.573l4.006-4.144h1.229Z" transform="translate(-3865.901 -1100.61)" fill="#e13648"/>
    <path id="Trazado_14" data-name="Trazado 14" d="M4236.057,1379.5a.927.927,0,0,1-.281-.675,1,1,0,1,1,2,0,.929.929,0,0,1-.281.675,1.046,1.046,0,0,1-1.436,0Z" transform="translate(-3890.157 -1134.817)" fill="#e13648"/>
    <path id="Trazado_15" data-name="Trazado 15" d="M4252.047,1339.683a1.5,1.5,0,0,1,.337,1.047,2.37,2.37,0,0,1-.61,1.64,2.543,2.543,0,0,1-1.674.8v-.476a1.7,1.7,0,0,0,1.038-.549,1.238,1.238,0,0,0,.311-.956.751.751,0,0,1-.372.087.9.9,0,0,1-.909-.934.984.984,0,0,1,.3-.735,1.1,1.1,0,0,1,1.575.078Z" transform="translate(-3901.206 -1105.277)" fill="#e13648"/>
    <path id="Trazado_16" data-name="Trazado 16" d="M4269.054,1346.226H4267.5v6.9h-1v-6.9h-1.548v-.831h1.548v-2.076h1v2.076h1.558Z" transform="translate(-3912.67 -1108.351)" fill="#e13648"/>
    <path id="Trazado_17" data-name="Trazado 17" d="M4287.808,1353.331a3.918,3.918,0,0,1,1.454-1.484,4.079,4.079,0,0,1,2.115-.549,4.15,4.15,0,0,1,2.128.549,3.867,3.867,0,0,1,1.462,1.484,4.185,4.185,0,0,1,.519,2.068,4.05,4.05,0,0,1-.532,2.046,3.934,3.934,0,0,1-1.462,1.471,4.392,4.392,0,0,1-4.222,0,3.846,3.846,0,0,1-1.462-1.471,4.1,4.1,0,0,1-.523-2.046A4.157,4.157,0,0,1,4287.808,1353.331Zm.913,3.668a2.916,2.916,0,0,0,1.082,1.133,3,3,0,0,0,1.574.415,3.045,3.045,0,0,0,1.583-.415,2.93,2.93,0,0,0,1.094-1.133,3.276,3.276,0,0,0,.394-1.6,3.387,3.387,0,0,0-.394-1.631,2.921,2.921,0,0,0-1.09-1.146,3.04,3.04,0,0,0-1.587-.415,3,3,0,0,0-1.574.415,2.9,2.9,0,0,0-1.082,1.142,3.411,3.411,0,0,0-.389,1.635A3.305,3.305,0,0,0,4288.72,1357Z" transform="translate(-3929.946 -1114.469)" fill="#e13648"/>
    <path id="Trazado_18" data-name="Trazado 18" d="M4327.68,1379.5a.927.927,0,0,1-.281-.675,1,1,0,1,1,2,0,.929.929,0,0,1-.281.675,1.046,1.046,0,0,1-1.436,0Z" transform="translate(-3960.807 -1134.817)" fill="#e13648"/>
    <path id="Trazado_19" data-name="Trazado 19" d="M4348.4,1351.94v.831a3.638,3.638,0,0,0-.58-.052,2.115,2.115,0,0,0-1.661.666,2.65,2.65,0,0,0-.6,1.834v4.447h-1.021v-7.726h.848l.156,1.254a1.729,1.729,0,0,1,.766-.99,2.471,2.471,0,0,1,1.327-.35A2.943,2.943,0,0,1,4348.4,1351.94Z" transform="translate(-3974.051 -1114.896)" fill="#e13648"/>
    <path id="Trazado_20" data-name="Trazado 20" d="M4371.354,1358.79a4.028,4.028,0,0,1-2.31.666,3.936,3.936,0,0,1-2.029-.515,3.5,3.5,0,0,1-1.358-1.445,4.605,4.605,0,0,1-.48-2.141,4.46,4.46,0,0,1,.489-2.124,3.529,3.529,0,0,1,1.354-1.427,4.077,4.077,0,0,1,3.854-.043,3.222,3.222,0,0,1,1.276,1.285,3.834,3.834,0,0,1,.45,1.869,5.593,5.593,0,0,1-.052.8h-6.376a3.042,3.042,0,0,0,.831,2.1,2.744,2.744,0,0,0,2.042.787,3.016,3.016,0,0,0,1.618-.432,2.172,2.172,0,0,0,.952-1.159h1A2.949,2.949,0,0,1,4371.354,1358.79Zm.233-3.876a2.834,2.834,0,0,0-.731-1.99,2.464,2.464,0,0,0-1.873-.753,2.68,2.68,0,0,0-2.812,2.742Z" transform="translate(-3990.012 -1114.469)" fill="#e13648"/>
    <path id="Trazado_21" data-name="Trazado 21" d="M4404.277,1358.825a2.138,2.138,0,0,1-.878-1.661h.978a1.389,1.389,0,0,0,.6,1.081,2.423,2.423,0,0,0,1.432.389,2.4,2.4,0,0,0,1.419-.372,1.2,1.2,0,0,0,.519-1.038q0-1.082-1.419-1.35l-1.436-.32a2.531,2.531,0,0,1-1.427-.744,1.93,1.93,0,0,1-.45-1.3,1.957,1.957,0,0,1,.761-1.6,3.571,3.571,0,0,1,4.036.03,2.171,2.171,0,0,1,.817,1.687h-.978a1.366,1.366,0,0,0-.532-1.107,2.138,2.138,0,0,0-1.345-.4,2.09,2.09,0,0,0-1.276.346,1.149,1.149,0,0,0-.463.978.967.967,0,0,0,.372.861,2.719,2.719,0,0,0,.926.385l1.592.354a2.467,2.467,0,0,1,1.4.77,2.168,2.168,0,0,1-.346,3.019,3.458,3.458,0,0,1-2.171.623A3.415,3.415,0,0,1,4404.277,1358.825Z" transform="translate(-4019.469 -1114.469)" fill="#e13648"/>
    <path id="Trazado_22" data-name="Trazado 22" d="M3917.294,1213.822h-7.186v18.827h-6.164v-18.827h-7.26v-5.552h20.609Z" transform="translate(-3628.685 -1004.786)" fill="#08296d"/>
    <path id="Trazado_23" data-name="Trazado 23" d="M3998.708,1208.27h9.9q10.008,0,9.989,8.1a8.388,8.388,0,0,1-1.021,4.224,6.907,6.907,0,0,1-2.971,2.776l4.307,9.283h-6.925l-3.527-8.207h-3.584v8.207h-6.164Zm9.859,10.917a3.757,3.757,0,0,0,2.674-.817,2.758,2.758,0,0,0,.037-3.955,3.677,3.677,0,0,0-2.674-.817h-3.732v5.589Z" transform="translate(-3707.414 -1004.786)" fill="#08296d"/>
    <path id="Trazado_24" data-name="Trazado 24" d="M4101.129,1200.156v-24.379h6.164v24.379Zm1.411-27.5,6.424-6.758,2.748,2.8-7.5,5.756Z" transform="translate(-3786.384 -972.293)" fill="#08296d"/>
    <path id="Trazado_25" data-name="Trazado 25" d="M4164.69,1210.479a8.915,8.915,0,0,1-.037,12.041,9.042,9.042,0,0,1-6.517,2.256h-4.252v7.872h-6.164V1208.27h10.546A8.941,8.941,0,0,1,4164.69,1210.479Zm-5.032,8.114a3.144,3.144,0,0,0,.835-2.173,2.791,2.791,0,0,0-.835-1.922,3.468,3.468,0,0,0-2.655-.9h-3.119v5.923H4157A3.407,3.407,0,0,0,4159.659,1218.594Z" transform="translate(-3822.395 -1004.786)" fill="#08296d"/>
    <path id="Trazado_26" data-name="Trazado 26" d="M4263.533,1225.368a11.656,11.656,0,0,1-4.716,4.475,15.677,15.677,0,0,1-13.749.019,11.635,11.635,0,0,1-4.7-4.456,12.794,12.794,0,0,1-1.7-6.629,13.015,13.015,0,0,1,1.68-6.638,11.557,11.557,0,0,1,4.7-4.5,15.637,15.637,0,0,1,13.768,0,11.679,11.679,0,0,1,4.716,4.465,13.863,13.863,0,0,1,0,13.266Zm-6.693-11.707a6.428,6.428,0,0,0-4.855-1.922,6.533,6.533,0,0,0-4.92,1.94,7.025,7.025,0,0,0-1.875,5.1,6.9,6.9,0,0,0,1.857,5.05,7.228,7.228,0,0,0,9.775-.019,6.946,6.946,0,0,0,1.866-5.069A7.021,7.021,0,0,0,4256.84,1213.662Z" transform="translate(-3892.671 -1003.076)" fill="#08296d"/>
    <path id="Trazado_27" data-name="Trazado 27" d="M4385.069,1209.848a11.262,11.262,0,0,1,4.392,4.391,12.7,12.7,0,0,1,1.578,6.322,12.365,12.365,0,0,1-1.559,6.229,11.176,11.176,0,0,1-4.354,4.3,12.863,12.863,0,0,1-6.377,1.56h-10.416V1208.27h10.416A12.7,12.7,0,0,1,4385.069,1209.848Zm-2.247,15.439a6.584,6.584,0,0,0,1.718-4.725,6.854,6.854,0,0,0-1.736-4.892,6.081,6.081,0,0,0-4.651-1.848H4374.5V1227.1h3.658A6.129,6.129,0,0,0,4382.822,1225.287Z" transform="translate(-3993.109 -1004.786)" fill="#08296d"/>
    <path id="Trazado_28" data-name="Trazado 28" d="M4487.667,1213.822v3.806h9.042v5.366h-9.042v4.1h10.23v5.552H4481.5V1208.27H4497.9v5.552Z" transform="translate(-4079.897 -1004.786)" fill="#08296d"/>
  </g>
</svg>
